<?xml version="1.0" encoding="UTF-8" standalone="no"?>
<!-- Created with Inkscape (http://www.inkscape.org/) -->

<svg
   version="1.1"
   id="svg2"
   xml:space="preserve"
   width="816"
   height="1056"
   viewBox="0 0 816 1056"
   xmlns="http://www.w3.org/2000/svg"
   xmlns:svg="http://www.w3.org/2000/svg"><defs
     id="defs6" /><g
     id="g8"
     transform="matrix(1.3333333,0,0,-1.3333333,0,1056)"><g
       id="g10"
       transform="translate(103.339,401.956)"><g
         id="g12"><g
           id="g14"><g
             id="g16" /><g
             id="g18" /><g
             id="g20" /><g
             id="g22" /><g
             id="g24" /><g
             id="g26" /><g
             id="g28" /><g
             id="g30" /><g
             id="g32" /><g
             id="g34" /><g
             id="g36" /><g
             id="g38" /><g
             id="g40" /><g
             id="g42" /><g
             id="g44" /><g
             id="g46" /><g
             id="g48" /><g
             id="g50" /><g
             id="g52" /><g
             id="g54" /><g
             id="g56" /><g
             id="g58" /><g
             id="g60" /><g
             id="g62" /><g
             id="g64" /><g
             id="g66" /><g
             id="g68" /><g
             id="g70" /><g
             id="g72" /><g
             id="g74" /><g
             id="g76" /><g
             id="g78" /><g
             id="g80" /><g
             id="g82" /><g
             id="g84"><path
               d="M 124.72662,124.72662 V -7.75285"
               style="fill:none;stroke:#e6e6e6;stroke-width:0.3985;stroke-linecap:butt;stroke-linejoin:miter;stroke-miterlimit:10;stroke-dasharray:none;stroke-opacity:1"
               id="path86" /><g
               id="g88"
               transform="rotate(-90,58.486885,-66.239735)"><g
                 id="g90"><path
                   d="M 3.58653,0 C 2.52383,0.19925 0.797,0.797 -0.3985,1.49438 V -1.49438 C 0.797,-0.797 2.52383,-0.19925 3.58653,0"
                   style="fill:#e6e6e6;fill-opacity:1;fill-rule:nonzero;stroke:none"
                   id="path92" /></g></g></g><g
             id="g94"><path
               d="M 124.72662,-11.33939 H -7.75285"
               style="fill:none;stroke:#e6e6e6;stroke-width:0.3985;stroke-linecap:butt;stroke-linejoin:miter;stroke-miterlimit:10;stroke-dasharray:none;stroke-opacity:1"
               id="path96" /><g
               id="g98"
               transform="rotate(180,-3.876425,-5.669695)"><g
                 id="g100"><path
                   d="M 3.58653,0 C 2.52383,0.19925 0.797,0.797 -0.3985,1.49438 V -1.49438 C 0.797,-0.797 2.52383,-0.19925 3.58653,0"
                   style="fill:#e6e6e6;fill-opacity:1;fill-rule:nonzero;stroke:none"
                   id="path102" /></g></g></g><g
             id="g104"><path
               d="M -11.33939,-11.33939 V 121.14009"
               style="fill:none;stroke:#e6e6e6;stroke-width:0.3985;stroke-linecap:butt;stroke-linejoin:miter;stroke-miterlimit:10;stroke-dasharray:none;stroke-opacity:1"
               id="path106" /><g
               id="g108"
               transform="rotate(90,-66.23974,54.90035)"><g
                 id="g110"><path
                   d="M 3.58653,0 C 2.52383,0.19925 0.797,0.797 -0.3985,1.49438 V -1.49438 C 0.797,-0.797 2.52383,-0.19925 3.58653,0"
                   style="fill:#e6e6e6;fill-opacity:1;fill-rule:nonzero;stroke:none"
                   id="path112" /></g></g></g><g
             id="g114"><path
               d="M -11.33939,124.72662 H 121.14009"
               style="fill:none;stroke:#e6e6e6;stroke-width:0.3985;stroke-linecap:butt;stroke-linejoin:miter;stroke-miterlimit:10;stroke-dasharray:none;stroke-opacity:1"
               id="path116" /><g
               id="g118"
               transform="translate(121.14009,124.72662)"><g
                 id="g120"><path
                   d="M 3.58653,0 C 2.52383,0.19925 0.797,0.797 -0.3985,1.49438 V -1.49438 C 0.797,-0.797 2.52383,-0.19925 3.58653,0"
                   style="fill:#e6e6e6;fill-opacity:1;fill-rule:nonzero;stroke:none"
                   id="path122" /></g></g></g><g
             id="g124"><path
               d="m 158.74142,124.72662 h 132.4795"
               style="fill:none;stroke:#e6e6e6;stroke-width:0.3985;stroke-linecap:butt;stroke-linejoin:miter;stroke-miterlimit:10;stroke-dasharray:none;stroke-opacity:1"
               id="path126" /><g
               id="g128"
               transform="translate(291.22092,124.72662)"><g
                 id="g130"><path
                   d="M 3.58653,0 C 2.52383,0.19925 0.797,0.797 -0.3985,1.49438 V -1.49438 C 0.797,-0.797 2.52383,-0.19925 3.58653,0"
                   style="fill:#e6e6e6;fill-opacity:1;fill-rule:nonzero;stroke:none"
                   id="path132" /></g></g></g><g
             id="g134"><path
               d="M 294.80746,124.72662 V -7.75285"
               style="fill:none;stroke:#e6e6e6;stroke-width:0.3985;stroke-linecap:butt;stroke-linejoin:miter;stroke-miterlimit:10;stroke-dasharray:none;stroke-opacity:1"
               id="path136" /><g
               id="g138"
               transform="rotate(-90,143.5273,-151.28015)"><g
                 id="g140"><path
                   d="M 3.58653,0 C 2.52383,0.19925 0.797,0.797 -0.3985,1.49438 V -1.49438 C 0.797,-0.797 2.52383,-0.19925 3.58653,0"
                   style="fill:#e6e6e6;fill-opacity:1;fill-rule:nonzero;stroke:none"
                   id="path142" /></g></g></g><g
             id="g144"><path
               d="M 294.80746,-11.33939 H 162.32796"
               style="fill:none;stroke:#e6e6e6;stroke-width:0.3985;stroke-linecap:butt;stroke-linejoin:miter;stroke-miterlimit:10;stroke-dasharray:none;stroke-opacity:1"
               id="path146" /><g
               id="g148"
               transform="rotate(180,81.16398,-5.669695)"><g
                 id="g150"><path
                   d="M 3.58653,0 C 2.52383,0.19925 0.797,0.797 -0.3985,1.49438 V -1.49438 C 0.797,-0.797 2.52383,-0.19925 3.58653,0"
                   style="fill:#e6e6e6;fill-opacity:1;fill-rule:nonzero;stroke:none"
                   id="path152" /></g></g></g><g
             id="g154"><path
               d="M 158.74142,-11.33939 V 121.14009"
               style="fill:none;stroke:#e6e6e6;stroke-width:0.3985;stroke-linecap:butt;stroke-linejoin:miter;stroke-miterlimit:10;stroke-dasharray:none;stroke-opacity:1"
               id="path156" /><g
               id="g158"
               transform="rotate(90,18.800665,139.94075)"><g
                 id="g160"><path
                   d="M 3.58653,0 C 2.52383,0.19925 0.797,0.797 -0.3985,1.49438 V -1.49438 C 0.797,-0.797 2.52383,-0.19925 3.58653,0"
                   style="fill:#e6e6e6;fill-opacity:1;fill-rule:nonzero;stroke:none"
                   id="path162" /></g></g></g><g
             id="g164"><path
               d="m 158.74142,158.74142 v 132.4795"
               style="fill:none;stroke:#e6e6e6;stroke-width:0.3985;stroke-linecap:butt;stroke-linejoin:miter;stroke-miterlimit:10;stroke-dasharray:none;stroke-opacity:1"
               id="path166" /><g
               id="g168"
               transform="rotate(90,-66.23975,224.98117)"><g
                 id="g170"><path
                   d="M 3.58653,0 C 2.52383,0.19925 0.797,0.797 -0.3985,1.49438 V -1.49438 C 0.797,-0.797 2.52383,-0.19925 3.58653,0"
                   style="fill:#e6e6e6;fill-opacity:1;fill-rule:nonzero;stroke:none"
                   id="path172" /></g></g></g><g
             id="g174"><path
               d="m 158.74142,294.80746 h 132.4795"
               style="fill:none;stroke:#e6e6e6;stroke-width:0.3985;stroke-linecap:butt;stroke-linejoin:miter;stroke-miterlimit:10;stroke-dasharray:none;stroke-opacity:1"
               id="path176" /><g
               id="g178"
               transform="translate(291.22092,294.80746)"><g
                 id="g180"><path
                   d="M 3.58653,0 C 2.52383,0.19925 0.797,0.797 -0.3985,1.49438 V -1.49438 C 0.797,-0.797 2.52383,-0.19925 3.58653,0"
                   style="fill:#e6e6e6;fill-opacity:1;fill-rule:nonzero;stroke:none"
                   id="path182" /></g></g></g><g
             id="g184"><path
               d="M 294.80746,294.80746 V 162.32796"
               style="fill:none;stroke:#e6e6e6;stroke-width:0.3985;stroke-linecap:butt;stroke-linejoin:miter;stroke-miterlimit:10;stroke-dasharray:none;stroke-opacity:1"
               id="path186" /><g
               id="g188"
               transform="rotate(-90,228.56771,-66.23975)"><g
                 id="g190"><path
                   d="M 3.58653,0 C 2.52383,0.19925 0.797,0.797 -0.3985,1.49438 V -1.49438 C 0.797,-0.797 2.52383,-0.19925 3.58653,0"
                   style="fill:#e6e6e6;fill-opacity:1;fill-rule:nonzero;stroke:none"
                   id="path192" /></g></g></g><g
             id="g194"><path
               d="M 294.80746,158.74142 H 162.32796"
               style="fill:none;stroke:#e6e6e6;stroke-width:0.3985;stroke-linecap:butt;stroke-linejoin:miter;stroke-miterlimit:10;stroke-dasharray:none;stroke-opacity:1"
               id="path196" /><g
               id="g198"
               transform="rotate(180,81.16398,79.37071)"><g
                 id="g200"><path
                   d="M 3.58653,0 C 2.52383,0.19925 0.797,0.797 -0.3985,1.49438 V -1.49438 C 0.797,-0.797 2.52383,-0.19925 3.58653,0"
                   style="fill:#e6e6e6;fill-opacity:1;fill-rule:nonzero;stroke:none"
                   id="path202" /></g></g></g><g
             id="g204"><path
               d="M 124.72662,158.74142 H -7.75285"
               style="fill:none;stroke:#e6e6e6;stroke-width:0.3985;stroke-linecap:butt;stroke-linejoin:miter;stroke-miterlimit:10;stroke-dasharray:none;stroke-opacity:1"
               id="path206" /><g
               id="g208"
               transform="rotate(180,-3.876425,79.37071)"><g
                 id="g210"><path
                   d="M 3.58653,0 C 2.52383,0.19925 0.797,0.797 -0.3985,1.49438 V -1.49438 C 0.797,-0.797 2.52383,-0.19925 3.58653,0"
                   style="fill:#e6e6e6;fill-opacity:1;fill-rule:nonzero;stroke:none"
                   id="path212" /></g></g></g><g
             id="g214"><path
               d="m -11.33939,158.74142 v 132.4795"
               style="fill:none;stroke:#e6e6e6;stroke-width:0.3985;stroke-linecap:butt;stroke-linejoin:miter;stroke-miterlimit:10;stroke-dasharray:none;stroke-opacity:1"
               id="path216" /><g
               id="g218"
               transform="rotate(90,-151.28015,139.94076)"><g
                 id="g220"><path
                   d="M 3.58653,0 C 2.52383,0.19925 0.797,0.797 -0.3985,1.49438 V -1.49438 C 0.797,-0.797 2.52383,-0.19925 3.58653,0"
                   style="fill:#e6e6e6;fill-opacity:1;fill-rule:nonzero;stroke:none"
                   id="path222" /></g></g></g><g
             id="g224"><path
               d="M -11.33939,294.80746 H 121.14009"
               style="fill:none;stroke:#e6e6e6;stroke-width:0.3985;stroke-linecap:butt;stroke-linejoin:miter;stroke-miterlimit:10;stroke-dasharray:none;stroke-opacity:1"
               id="path226" /><g
               id="g228"
               transform="translate(121.14009,294.80746)"><g
                 id="g230"><path
                   d="M 3.58653,0 C 2.52383,0.19925 0.797,0.797 -0.3985,1.49438 V -1.49438 C 0.797,-0.797 2.52383,-0.19925 3.58653,0"
                   style="fill:#e6e6e6;fill-opacity:1;fill-rule:nonzero;stroke:none"
                   id="path232" /></g></g></g><g
             id="g234"><path
               d="M 124.72662,294.80746 V 162.32796"
               style="fill:none;stroke:#e6e6e6;stroke-width:0.3985;stroke-linecap:butt;stroke-linejoin:miter;stroke-miterlimit:10;stroke-dasharray:none;stroke-opacity:1"
               id="path236" /><g
               id="g238"
               transform="rotate(-90,143.52729,18.80067)"><g
                 id="g240"><path
                   d="M 3.58653,0 C 2.52383,0.19925 0.797,0.797 -0.3985,1.49438 V -1.49438 C 0.797,-0.797 2.52383,-0.19925 3.58653,0"
                   style="fill:#e6e6e6;fill-opacity:1;fill-rule:nonzero;stroke:none"
                   id="path242" /></g></g></g><g
             id="g244"><path
               d="m 124.72662,124.72662 v 30.42826"
               style="fill:none;stroke:#e6e6e6;stroke-width:0.3985;stroke-linecap:butt;stroke-linejoin:miter;stroke-miterlimit:10;stroke-dasharray:none;stroke-opacity:1"
               id="path246" /><g
               id="g248"
               transform="rotate(90,-15.21413,139.94075)"><g
                 id="g250"><path
                   d="M 3.58653,0 C 2.52383,0.19925 0.797,0.797 -0.3985,1.49438 V -1.49438 C 0.797,-0.797 2.52383,-0.19925 3.58653,0"
                   style="fill:#e6e6e6;fill-opacity:1;fill-rule:nonzero;stroke:none"
                   id="path252" /></g></g></g><g
             id="g254"><path
               d="M 124.72662,158.74142 V 128.31317"
               style="fill:none;stroke:#e6e6e6;stroke-width:0.3985;stroke-linecap:butt;stroke-linejoin:miter;stroke-miterlimit:10;stroke-dasharray:none;stroke-opacity:1"
               id="path256" /><g
               id="g258"
               transform="rotate(-90,126.51989,1.793275)"><g
                 id="g260"><path
                   d="M 3.58653,0 C 2.52383,0.19925 0.797,0.797 -0.3985,1.49438 V -1.49438 C 0.797,-0.797 2.52383,-0.19925 3.58653,0"
                   style="fill:#e6e6e6;fill-opacity:1;fill-rule:nonzero;stroke:none"
                   id="path262" /></g></g></g><g
             id="g264"><path
               d="m 124.72662,124.72662 h 30.42826"
               style="fill:none;stroke:#e6e6e6;stroke-width:0.3985;stroke-linecap:butt;stroke-linejoin:miter;stroke-miterlimit:10;stroke-dasharray:none;stroke-opacity:1"
               id="path266" /><g
               id="g268"
               transform="translate(155.15488,124.72662)"><g
                 id="g270"><path
                   d="M 3.58653,0 C 2.52383,0.19925 0.797,0.797 -0.3985,1.49438 V -1.49438 C 0.797,-0.797 2.52383,-0.19925 3.58653,0"
                   style="fill:#e6e6e6;fill-opacity:1;fill-rule:nonzero;stroke:none"
                   id="path272" /></g></g></g><g
             id="g274"><path
               d="M 158.74142,124.72662 H 128.31317"
               style="fill:none;stroke:#e6e6e6;stroke-width:0.3985;stroke-linecap:butt;stroke-linejoin:miter;stroke-miterlimit:10;stroke-dasharray:none;stroke-opacity:1"
               id="path276" /><g
               id="g278"
               transform="rotate(180,64.156585,62.36331)"><g
                 id="g280"><path
                   d="M 3.58653,0 C 2.52383,0.19925 0.797,0.797 -0.3985,1.49438 V -1.49438 C 0.797,-0.797 2.52383,-0.19925 3.58653,0"
                   style="fill:#e6e6e6;fill-opacity:1;fill-rule:nonzero;stroke:none"
                   id="path282" /></g></g></g><g
             id="g284"><path
               d="m 158.74142,124.72662 v 30.42826"
               style="fill:none;stroke:#e6e6e6;stroke-width:0.3985;stroke-linecap:butt;stroke-linejoin:miter;stroke-miterlimit:10;stroke-dasharray:none;stroke-opacity:1"
               id="path286" /><g
               id="g288"
               transform="rotate(90,1.79327,156.94815)"><g
                 id="g290"><path
                   d="M 3.58653,0 C 2.52383,0.19925 0.797,0.797 -0.3985,1.49438 V -1.49438 C 0.797,-0.797 2.52383,-0.19925 3.58653,0"
                   style="fill:#e6e6e6;fill-opacity:1;fill-rule:nonzero;stroke:none"
                   id="path292" /></g></g></g><g
             id="g294"><path
               d="M 158.74142,158.74142 V 128.31317"
               style="fill:none;stroke:#e6e6e6;stroke-width:0.3985;stroke-linecap:butt;stroke-linejoin:miter;stroke-miterlimit:10;stroke-dasharray:none;stroke-opacity:1"
               id="path296" /><g
               id="g298"
               transform="rotate(-90,143.52729,-15.214125)"><g
                 id="g300"><path
                   d="M 3.58653,0 C 2.52383,0.19925 0.797,0.797 -0.3985,1.49438 V -1.49438 C 0.797,-0.797 2.52383,-0.19925 3.58653,0"
                   style="fill:#e6e6e6;fill-opacity:1;fill-rule:nonzero;stroke:none"
                   id="path302" /></g></g></g><g
             id="g304"><path
               d="M 158.74142,158.74142 H 128.31317"
               style="fill:none;stroke:#e6e6e6;stroke-width:0.3985;stroke-linecap:butt;stroke-linejoin:miter;stroke-miterlimit:10;stroke-dasharray:none;stroke-opacity:1"
               id="path306" /><g
               id="g308"
               transform="rotate(180,64.156585,79.37071)"><g
                 id="g310"><path
                   d="M 3.58653,0 C 2.52383,0.19925 0.797,0.797 -0.3985,1.49438 V -1.49438 C 0.797,-0.797 2.52383,-0.19925 3.58653,0"
                   style="fill:#e6e6e6;fill-opacity:1;fill-rule:nonzero;stroke:none"
                   id="path312" /></g></g></g><g
             id="g314"><path
               d="m 124.72662,158.74142 h 30.42826"
               style="fill:none;stroke:#e6e6e6;stroke-width:0.3985;stroke-linecap:butt;stroke-linejoin:miter;stroke-miterlimit:10;stroke-dasharray:none;stroke-opacity:1"
               id="path316" /><g
               id="g318"
               transform="translate(155.15488,158.74142)"><g
                 id="g320"><path
                   d="M 3.58653,0 C 2.52383,0.19925 0.797,0.797 -0.3985,1.49438 V -1.49438 C 0.797,-0.797 2.52383,-0.19925 3.58653,0"
                   style="fill:#e6e6e6;fill-opacity:1;fill-rule:nonzero;stroke:none"
                   id="path322" /></g></g></g><path
             d="M 124.72662,113.38724 V -7.75285"
             style="fill:none;stroke:#000000;stroke-width:0.3985;stroke-linecap:butt;stroke-linejoin:miter;stroke-miterlimit:10;stroke-dasharray:none;stroke-opacity:1"
             id="path324" /><g
             id="g326"
             transform="rotate(-90,58.486885,-66.239735)"><g
               id="g328"><path
                 d="M 3.58653,0 C 2.52383,0.19925 0.797,0.797 -0.3985,1.49438 V -1.49438 C 0.797,-0.797 2.52383,-0.19925 3.58653,0"
                 style="fill:#000000;fill-opacity:1;fill-rule:nonzero;stroke:none"
                 id="path330" /></g></g><path
             d="M 124.72662,-11.33939 H -7.75285"
             style="fill:none;stroke:#000000;stroke-width:0.3985;stroke-linecap:butt;stroke-linejoin:miter;stroke-miterlimit:10;stroke-dasharray:none;stroke-opacity:1"
             id="path332" /><g
             id="g334"
             transform="rotate(180,-3.876425,-5.669695)"><g
               id="g336"><path
                 d="M 3.58653,0 C 2.52383,0.19925 0.797,0.797 -0.3985,1.49438 V -1.49438 C 0.797,-0.797 2.52383,-0.19925 3.58653,0"
                 style="fill:#000000;fill-opacity:1;fill-rule:nonzero;stroke:none"
                 id="path338" /></g></g><path
             d="M -11.33939,-11.33939 V 121.14009"
             style="fill:none;stroke:#000000;stroke-width:0.3985;stroke-linecap:butt;stroke-linejoin:miter;stroke-miterlimit:10;stroke-dasharray:none;stroke-opacity:1"
             id="path340" /><g
             id="g342"
             transform="rotate(90,-66.23974,54.90035)"><g
               id="g344"><path
                 d="M 3.58653,0 C 2.52383,0.19925 0.797,0.797 -0.3985,1.49438 V -1.49438 C 0.797,-0.797 2.52383,-0.19925 3.58653,0"
                 style="fill:#000000;fill-opacity:1;fill-rule:nonzero;stroke:none"
                 id="path346" /></g></g><path
             d="M -11.33939,124.72662 H 121.14009"
             style="fill:none;stroke:#000000;stroke-width:0.3985;stroke-linecap:butt;stroke-linejoin:miter;stroke-miterlimit:10;stroke-dasharray:none;stroke-opacity:1"
             id="path348" /><g
             id="g350"
             transform="translate(121.14009,124.72662)"><g
               id="g352"><path
                 d="M 3.58653,0 C 2.52383,0.19925 0.797,0.797 -0.3985,1.49438 V -1.49438 C 0.797,-0.797 2.52383,-0.19925 3.58653,0"
                 style="fill:#000000;fill-opacity:1;fill-rule:nonzero;stroke:none"
                 id="path354" /></g></g><path
             d="m 158.74142,124.72662 h 132.4795"
             style="fill:none;stroke:#000000;stroke-width:0.3985;stroke-linecap:butt;stroke-linejoin:miter;stroke-miterlimit:10;stroke-dasharray:none;stroke-opacity:1"
             id="path356" /><g
             id="g358"
             transform="translate(291.22092,124.72662)"><g
               id="g360"><path
                 d="M 3.58653,0 C 2.52383,0.19925 0.797,0.797 -0.3985,1.49438 V -1.49438 C 0.797,-0.797 2.52383,-0.19925 3.58653,0"
                 style="fill:#000000;fill-opacity:1;fill-rule:nonzero;stroke:none"
                 id="path362" /></g></g><path
             d="M 294.80746,124.72662 V -7.75285"
             style="fill:none;stroke:#000000;stroke-width:0.3985;stroke-linecap:butt;stroke-linejoin:miter;stroke-miterlimit:10;stroke-dasharray:none;stroke-opacity:1"
             id="path364" /><g
             id="g366"
             transform="rotate(-90,143.5273,-151.28015)"><g
               id="g368"><path
                 d="M 3.58653,0 C 2.52383,0.19925 0.797,0.797 -0.3985,1.49438 V -1.49438 C 0.797,-0.797 2.52383,-0.19925 3.58653,0"
                 style="fill:#000000;fill-opacity:1;fill-rule:nonzero;stroke:none"
                 id="path370" /></g></g><path
             d="M 294.80746,-11.33939 H 162.32796"
             style="fill:none;stroke:#000000;stroke-width:0.3985;stroke-linecap:butt;stroke-linejoin:miter;stroke-miterlimit:10;stroke-dasharray:none;stroke-opacity:1"
             id="path372" /><g
             id="g374"
             transform="rotate(180,81.16398,-5.669695)"><g
               id="g376"><path
                 d="M 3.58653,0 C 2.52383,0.19925 0.797,0.797 -0.3985,1.49438 V -1.49438 C 0.797,-0.797 2.52383,-0.19925 3.58653,0"
                 style="fill:#000000;fill-opacity:1;fill-rule:nonzero;stroke:none"
                 id="path378" /></g></g><path
             d="M 158.74142,-11.33939 V 109.80069"
             style="fill:none;stroke:#000000;stroke-width:0.3985;stroke-linecap:butt;stroke-linejoin:miter;stroke-miterlimit:10;stroke-dasharray:none;stroke-opacity:1"
             id="path380" /><g
             id="g382"
             transform="rotate(90,24.470365,134.27105)"><g
               id="g384"><path
                 d="M 3.58653,0 C 2.52383,0.19925 0.797,0.797 -0.3985,1.49438 V -1.49438 C 0.797,-0.797 2.52383,-0.19925 3.58653,0"
                 style="fill:#000000;fill-opacity:1;fill-rule:nonzero;stroke:none"
                 id="path386" /></g></g><path
             d="m 158.74142,158.74142 v 132.4795"
             style="fill:none;stroke:#000000;stroke-width:0.3985;stroke-linecap:butt;stroke-linejoin:miter;stroke-miterlimit:10;stroke-dasharray:none;stroke-opacity:1"
             id="path388" /><g
             id="g390"
             transform="rotate(90,-66.23975,224.98117)"><g
               id="g392"><path
                 d="M 3.58653,0 C 2.52383,0.19925 0.797,0.797 -0.3985,1.49438 V -1.49438 C 0.797,-0.797 2.52383,-0.19925 3.58653,0"
                 style="fill:#000000;fill-opacity:1;fill-rule:nonzero;stroke:none"
                 id="path394" /></g></g><path
             d="m 158.74142,294.80746 h 132.4795"
             style="fill:none;stroke:#000000;stroke-width:0.3985;stroke-linecap:butt;stroke-linejoin:miter;stroke-miterlimit:10;stroke-dasharray:none;stroke-opacity:1"
             id="path396" /><g
             id="g398"
             transform="translate(291.22092,294.80746)"><g
               id="g400"><path
                 d="M 3.58653,0 C 2.52383,0.19925 0.797,0.797 -0.3985,1.49438 V -1.49438 C 0.797,-0.797 2.52383,-0.19925 3.58653,0"
                 style="fill:#000000;fill-opacity:1;fill-rule:nonzero;stroke:none"
                 id="path402" /></g></g><path
             d="M 294.80746,294.80746 V 162.32796"
             style="fill:none;stroke:#000000;stroke-width:0.3985;stroke-linecap:butt;stroke-linejoin:miter;stroke-miterlimit:10;stroke-dasharray:none;stroke-opacity:1"
             id="path404" /><g
             id="g406"
             transform="rotate(-90,228.56771,-66.23975)"><g
               id="g408"><path
                 d="M 3.58653,0 C 2.52383,0.19925 0.797,0.797 -0.3985,1.49438 V -1.49438 C 0.797,-0.797 2.52383,-0.19925 3.58653,0"
                 style="fill:#000000;fill-opacity:1;fill-rule:nonzero;stroke:none"
                 id="path410" /></g></g><path
             d="M 294.80746,158.74142 H 162.32796"
             style="fill:none;stroke:#000000;stroke-width:0.3985;stroke-linecap:butt;stroke-linejoin:miter;stroke-miterlimit:10;stroke-dasharray:none;stroke-opacity:1"
             id="path412" /><g
             id="g414"
             transform="rotate(180,81.16398,79.37071)"><g
               id="g416"><path
                 d="M 3.58653,0 C 2.52383,0.19925 0.797,0.797 -0.3985,1.49438 V -1.49438 C 0.797,-0.797 2.52383,-0.19925 3.58653,0"
                 style="fill:#000000;fill-opacity:1;fill-rule:nonzero;stroke:none"
                 id="path418" /></g></g><path
             d="M 124.72662,158.74142 H -7.75285"
             style="fill:none;stroke:#000000;stroke-width:0.3985;stroke-linecap:butt;stroke-linejoin:miter;stroke-miterlimit:10;stroke-dasharray:none;stroke-opacity:1"
             id="path420" /><g
             id="g422"
             transform="rotate(180,-3.876425,79.37071)"><g
               id="g424"><path
                 d="M 3.58653,0 C 2.52383,0.19925 0.797,0.797 -0.3985,1.49438 V -1.49438 C 0.797,-0.797 2.52383,-0.19925 3.58653,0"
                 style="fill:#000000;fill-opacity:1;fill-rule:nonzero;stroke:none"
                 id="path426" /></g></g><path
             d="m -11.33939,158.74142 v 132.4795"
             style="fill:none;stroke:#000000;stroke-width:0.3985;stroke-linecap:butt;stroke-linejoin:miter;stroke-miterlimit:10;stroke-dasharray:none;stroke-opacity:1"
             id="path428" /><g
             id="g430"
             transform="rotate(90,-151.28015,139.94076)"><g
               id="g432"><path
                 d="M 3.58653,0 C 2.52383,0.19925 0.797,0.797 -0.3985,1.49438 V -1.49438 C 0.797,-0.797 2.52383,-0.19925 3.58653,0"
                 style="fill:#000000;fill-opacity:1;fill-rule:nonzero;stroke:none"
                 id="path434" /></g></g><path
             d="M -11.33939,294.80746 H 121.14009"
             style="fill:none;stroke:#000000;stroke-width:0.3985;stroke-linecap:butt;stroke-linejoin:miter;stroke-miterlimit:10;stroke-dasharray:none;stroke-opacity:1"
             id="path436" /><g
             id="g438"
             transform="translate(121.14009,294.80746)"><g
               id="g440"><path
                 d="M 3.58653,0 C 2.52383,0.19925 0.797,0.797 -0.3985,1.49438 V -1.49438 C 0.797,-0.797 2.52383,-0.19925 3.58653,0"
                 style="fill:#000000;fill-opacity:1;fill-rule:nonzero;stroke:none"
                 id="path442" /></g></g><path
             d="M 124.72662,294.80746 V 162.32796"
             style="fill:none;stroke:#000000;stroke-width:0.3985;stroke-linecap:butt;stroke-linejoin:miter;stroke-miterlimit:10;stroke-dasharray:none;stroke-opacity:1"
             id="path444" /><g
             id="g446"
             transform="rotate(-90,143.52729,18.80067)"><g
               id="g448"><path
                 d="M 3.58653,0 C 2.52383,0.19925 0.797,0.797 -0.3985,1.49438 V -1.49438 C 0.797,-0.797 2.52383,-0.19925 3.58653,0"
                 style="fill:#000000;fill-opacity:1;fill-rule:nonzero;stroke:none"
                 id="path450" /></g></g><g
             id="g452"><path
               d="m 124.72662,124.72662 v 30.42826"
               style="fill:none;stroke:#000000;stroke-width:0.3985;stroke-linecap:butt;stroke-linejoin:miter;stroke-miterlimit:10;stroke-dasharray:2.98883, 2.98883;stroke-dashoffset:0;stroke-opacity:1"
               id="path454" /><g
               id="g456"
               transform="rotate(90,-15.21413,139.94075)"><g
                 id="g458"><path
                   d="M 3.58653,0 C 2.52383,0.19925 0.797,0.797 -0.3985,1.49438 V -1.49438 C 0.797,-0.797 2.52383,-0.19925 3.58653,0"
                   style="fill:#000000;fill-opacity:1;fill-rule:nonzero;stroke:none"
                   id="path460" /></g></g></g><g
             id="g462"><path
               d="m 124.72662,158.74142 h 30.42826"
               style="fill:none;stroke:#000000;stroke-width:0.3985;stroke-linecap:butt;stroke-linejoin:miter;stroke-miterlimit:10;stroke-dasharray:2.98883, 2.98883;stroke-dashoffset:0;stroke-opacity:1"
               id="path464" /><g
               id="g466"
               transform="translate(155.15488,158.74142)"><g
                 id="g468"><path
                   d="M 3.58653,0 C 2.52383,0.19925 0.797,0.797 -0.3985,1.49438 V -1.49438 C 0.797,-0.797 2.52383,-0.19925 3.58653,0"
                   style="fill:#000000;fill-opacity:1;fill-rule:nonzero;stroke:none"
                   id="path470" /></g></g></g><g
             id="g472"><path
               d="M 158.74142,158.74142 V 128.31317"
               style="fill:none;stroke:#000000;stroke-width:0.3985;stroke-linecap:butt;stroke-linejoin:miter;stroke-miterlimit:10;stroke-dasharray:2.98883, 2.98883;stroke-dashoffset:0;stroke-opacity:1"
               id="path474" /><g
               id="g476"
               transform="rotate(-90,143.52729,-15.214125)"><g
                 id="g478"><path
                   d="M 3.58653,0 C 2.52383,0.19925 0.797,0.797 -0.3985,1.49438 V -1.49438 C 0.797,-0.797 2.52383,-0.19925 3.58653,0"
                   style="fill:#000000;fill-opacity:1;fill-rule:nonzero;stroke:none"
                   id="path480" /></g></g></g><g
             id="g482"><path
               d="M 0,0 H 113.38724 V 113.38724 H 0 Z"
               style="fill:#ff8080;fill-opacity:1;fill-rule:nonzero;stroke:#ffffff;stroke-width:0.3985;stroke-linecap:butt;stroke-linejoin:miter;stroke-miterlimit:10;stroke-dasharray:none;stroke-opacity:1"
               id="path484" /></g><g
             id="g486"><path
               d="M 170.08083,0 H 283.46806 V 113.38724 H 170.08083 Z"
               style="fill:#808080;fill-opacity:1;fill-rule:nonzero;stroke:#ffffff;stroke-width:0.3985;stroke-linecap:butt;stroke-linejoin:miter;stroke-miterlimit:10;stroke-dasharray:none;stroke-opacity:1"
               id="path488" /></g><g
             id="g490"><path
               d="M 0,170.08083 V 283.46806 H 113.38724 V 170.08083 Z"
               style="fill:#fff880;fill-opacity:1;fill-rule:nonzero;stroke:#ffffff;stroke-width:0.3985;stroke-linecap:butt;stroke-linejoin:miter;stroke-miterlimit:10;stroke-dasharray:none;stroke-opacity:1"
               id="path492" /></g><g
             id="g494"><path
               d="M 170.08083,170.08083 V 283.46806 H 283.46806 V 170.08083 Z"
               style="fill:#ffbf80;fill-opacity:1;fill-rule:nonzero;stroke:#ffffff;stroke-width:0.3985;stroke-linecap:butt;stroke-linejoin:miter;stroke-miterlimit:10;stroke-dasharray:none;stroke-opacity:1"
               id="path496" /></g><g
             id="g498"><path
               d="m 128.71173,113.38724 c 0,2.20094 -1.78416,3.9851 -3.98511,3.9851 -2.20092,0 -3.9851,-1.78416 -3.9851,-3.9851 0,-2.20094 1.78418,-3.98511 3.9851,-3.98511 2.20095,0 3.98511,1.78417 3.98511,3.98511 z"
               style="fill:#000000;fill-opacity:1;fill-rule:nonzero;stroke:#000000;stroke-width:0.3985;stroke-linecap:butt;stroke-linejoin:miter;stroke-miterlimit:10;stroke-dasharray:none;stroke-opacity:1"
               id="path500" /></g><g
             id="g502"><g
               id="g504"
               transform="translate(38.268,223.312)"><g
                 id="g506"><g
                   id="g508"
                   transform="translate(-141.607,-625.268)"><text
                     transform="matrix(1,0,0,-1,141.607,625.268)"
                     style="font-variant:normal;font-weight:normal;font-size:9.9626px;font-family:CMR10;-inkscape-font-specification:CMR10;writing-mode:lr-tb;fill:#000000;fill-opacity:1;fill-rule:nonzero;stroke:none"
                     id="text512"><tspan
                       x="0 7.0565095 9.8241196 15.084373 19.2328 27.808605"
                       y="0"
                       id="tspan510">Block1</tspan></text><g
                     id="g514"
                     transform="translate(141.607,625.268)" /></g></g><g
                 id="g516"
                 transform="translate(-38.268,-223.312)" /></g></g><g
             id="g518"><g
               id="g520"
               transform="translate(208.347,223.312)"><g
                 id="g522"><g
                   id="g524"
                   transform="translate(-311.686,-625.268)"><text
                     transform="matrix(1,0,0,-1,311.686,625.268)"
                     style="font-variant:normal;font-weight:normal;font-size:9.9626px;font-family:CMR10;-inkscape-font-specification:CMR10;writing-mode:lr-tb;fill:#000000;fill-opacity:1;fill-rule:nonzero;stroke:none"
                     id="text528"><tspan
                       x="0 7.0565095 9.8241196 15.084373 19.2328 27.808605"
                       y="0"
                       id="tspan526">Block2</tspan></text><g
                     id="g530"
                     transform="translate(311.686,625.268)" /></g></g><g
                 id="g532"
                 transform="translate(-208.347,-223.312)" /></g></g><g
             id="g534"><g
               id="g536"
               transform="translate(38.268,53.234)"><g
                 id="g538"><g
                   id="g540"
                   transform="translate(-141.607,-455.19)"><text
                     transform="matrix(1,0,0,-1,141.607,455.19)"
                     style="font-variant:normal;font-weight:normal;font-size:9.9626px;font-family:CMR10;-inkscape-font-specification:CMR10;writing-mode:lr-tb;fill:#000000;fill-opacity:1;fill-rule:nonzero;stroke:none"
                     id="text544"><tspan
                       x="0 7.0565095 9.8241196 15.084373 19.2328 27.808605"
                       y="0"
                       id="tspan542">Block3</tspan></text><g
                     id="g546"
                     transform="translate(141.607,455.19)" /></g></g><g
                 id="g548"
                 transform="translate(-38.268,-53.234)" /></g></g><g
             id="g550"><g
               id="g552"
               transform="translate(208.347,53.234)"><g
                 id="g554"><g
                   id="g556"
                   transform="translate(-311.686,-455.19)"><text
                     transform="matrix(1,0,0,-1,311.686,455.19)"
                     style="font-variant:normal;font-weight:normal;font-size:9.9626px;font-family:CMR10;-inkscape-font-specification:CMR10;writing-mode:lr-tb;fill:#000000;fill-opacity:1;fill-rule:nonzero;stroke:none"
                     id="text560"><tspan
                       x="0 7.0565095 9.8241196 15.084373 19.2328 27.808605"
                       y="0"
                       id="tspan558">Block4</tspan></text><g
                     id="g562"
                     transform="translate(311.686,455.19)" /></g></g><g
                 id="g564"
                 transform="translate(-208.347,-53.234)" /></g></g><g
             id="g566"><g
               id="g568"
               transform="translate(372.047,258.605)"><g
                 id="g570"><g
                   id="g572"
                   transform="translate(-475.386,-660.561)"><text
                     transform="matrix(1,0,0,-1,475.386,660.561)"
                     style="font-variant:normal;font-weight:normal;font-size:9.9626px;font-family:CMR10;-inkscape-font-specification:CMR10;writing-mode:lr-tb;fill:#000000;fill-opacity:1;fill-rule:nonzero;stroke:none"
                     id="text578"><tspan
                       x="0 4.9812999 9.408679 13.283134 16.050745 20.751099 25.732399 29.606855 34.044197"
                       y="0"
                       id="tspan574">activated</tspan><tspan
                       x="0 3.9292495 9.4644699 13.36682 18.069168 23.327429 26.095037 31.630259"
                       y="11.955"
                       id="tspan576">spraying</tspan></text><g
                     id="g580"
                     transform="translate(475.386,660.561)" /></g></g><g
                 id="g582"
                 transform="translate(-372.047,-258.605)" /></g></g><path
             d="M 340.16171,215.43501 H 449.9624"
             style="fill:none;stroke:#000000;stroke-width:0.3985;stroke-linecap:butt;stroke-linejoin:miter;stroke-miterlimit:10;stroke-dasharray:none;stroke-opacity:1"
             id="path584" /><g
             id="g586"
             transform="translate(449.9624,215.43501)"><g
               id="g588"><path
                 d="M 3.58653,0 C 2.52383,0.19925 0.797,0.797 -0.3985,1.49438 V -1.49438 C 0.797,-0.797 2.52383,-0.19925 3.58653,0"
                 style="fill:#000000;fill-opacity:1;fill-rule:nonzero;stroke:none"
                 id="path590" /></g></g><g
             id="g592"><g
               id="g594"
               transform="translate(372.047,88.526)"><g
                 id="g596"><g
                   id="g598"
                   transform="translate(-475.386,-490.482)"><text
                     transform="matrix(1,0,0,-1,475.386,490.482)"
                     style="font-variant:normal;font-weight:normal;font-size:9.9626px;font-family:CMR10;-inkscape-font-specification:CMR10;writing-mode:lr-tb;fill:#000000;fill-opacity:1;fill-rule:nonzero;stroke:none"
                     id="text604"><tspan
                       x="0 5.5352206 9.9625998 14.9439 19.371279 23.245735 26.013346 30.713699 35.704964 39.569454 44.006798"
                       y="0"
                       id="tspan600">deactivated</tspan><tspan
                       x="0 3.9292495 9.4644699 13.36682 18.069168 23.327429 26.095037 31.630259"
                       y="11.955"
                       id="tspan602">spraying</tspan></text><g
                     id="g606"
                     transform="translate(475.386,490.482)" /></g></g><g
                 id="g608"
                 transform="translate(-372.047,-88.526)" /></g></g><g
             id="g610"><path
               d="M 340.16171,45.35419 H 449.9624"
               style="fill:none;stroke:#000000;stroke-width:0.3985;stroke-linecap:butt;stroke-linejoin:miter;stroke-miterlimit:10;stroke-dasharray:2.98883, 2.98883;stroke-dashoffset:0;stroke-opacity:1"
               id="path612" /><g
               id="g614"
               transform="translate(449.9624,45.35419)"><g
                 id="g616"><path
                   d="M 3.58653,0 C 2.52383,0.19925 0.797,0.797 -0.3985,1.49438 V -1.49438 C 0.797,-0.797 2.52383,-0.19925 3.58653,0"
                   style="fill:#000000;fill-opacity:1;fill-rule:nonzero;stroke:none"
                   id="path618" /></g></g></g></g></g></g></g></svg>
